<?xml version="1.0" encoding="UTF-8" standalone="no"?>
<!-- Generator: Adobe Illustrator 19.0.0, SVG Export Plug-In . SVG Version: 6.00 Build 0)  -->

<svg
   xmlns:dc="http://purl.org/dc/elements/1.1/"
   xmlns:cc="http://creativecommons.org/ns#"
   xmlns:rdf="http://www.w3.org/1999/02/22-rdf-syntax-ns#"
   xmlns:svg="http://www.w3.org/2000/svg"
   xmlns="http://www.w3.org/2000/svg"
   xmlns:sodipodi="http://sodipodi.sourceforge.net/DTD/sodipodi-0.dtd"
   xmlns:inkscape="http://www.inkscape.org/namespaces/inkscape"
   version="1.1"
   id="Layer_1"
   x="0px"
   y="0px"
   viewBox="0 0 512 512"
   style="enable-background:new 0 0 512 512;"
   xml:space="preserve"
   sodipodi:docname="audio.svg"
   inkscape:version="0.92.5 (2060ec1f9f, 2020-04-08)"><metadata
   id="metadata109"><rdf:RDF><cc:Work
       rdf:about=""><dc:format>image/svg+xml</dc:format><dc:type
         rdf:resource="http://purl.org/dc/dcmitype/StillImage" /></cc:Work></rdf:RDF></metadata><defs
   id="defs107" /><sodipodi:namedview
   pagecolor="#ffffff"
   bordercolor="#666666"
   borderopacity="1"
   objecttolerance="10"
   gridtolerance="10"
   guidetolerance="10"
   inkscape:pageopacity="0"
   inkscape:pageshadow="2"
   inkscape:window-width="640"
   inkscape:window-height="480"
   id="namedview105"
   showgrid="false"
   inkscape:zoom="0.4609375"
   inkscape:cx="256"
   inkscape:cy="256"
   inkscape:window-x="0"
   inkscape:window-y="27"
   inkscape:window-maximized="0"
   inkscape:current-layer="Layer_1" />












<g
   id="g74">
</g>
<g
   id="g76">
</g>
<g
   id="g78">
</g>
<g
   id="g80">
</g>
<g
   id="g82">
</g>
<g
   id="g84">
</g>
<g
   id="g86">
</g>
<g
   id="g88">
</g>
<g
   id="g90">
</g>
<g
   id="g92">
</g>
<g
   id="g94">
</g>
<g
   id="g96">
</g>
<g
   id="g98">
</g>
<g
   id="g100">
</g>
<g
   id="g102">
</g>
<g
   transform="matrix(0.99998047,0,0,0.99998047,2.0003064,-8.6777588)"
   id="g10"><path
     inkscape:connector-curvature="0"
     d="M 234.603,46.947 99.794,129.005 H 15 c -8.284,0 -15,6.716 -15,15 v 224 c 0,8.284 6.716,15 15,15 h 84.794 l 134.808,82.058 C 264.598,483.322 303,461.752 303,426.624 V 85.386 C 303,50.27 264.606,28.683 234.603,46.947 Z M 30,159.005 h 59 v 194 H 30 Z m 243,267.619 c 0,11.698 -12.787,18.908 -22.8,12.813 L 119,359.575 V 152.435 L 250.2,72.574 c 9.995,-6.084 22.8,1.091 22.8,12.813 z"
     id="path2" /><path
     inkscape:connector-curvature="0"
     d="m 345.678,217.114 c -5.858,5.858 -5.858,15.355 0,21.213 9.77,9.771 9.771,25.584 0,35.355 -5.858,5.858 -5.858,15.355 0,21.213 5.857,5.858 15.355,5.859 21.213,0 21.444,-21.444 21.444,-56.337 0,-77.781 -5.858,-5.858 -15.356,-5.858 -21.213,0 z"
     id="path4" /><path
     inkscape:connector-curvature="0"
     d="m 412.146,171.86 c -5.857,-5.858 -15.355,-5.858 -21.213,0 -5.858,5.858 -5.858,15.355 0,21.213 34.701,34.701 34.701,91.164 0,125.865 -5.858,5.858 -5.858,15.355 0,21.213 5.857,5.858 15.355,5.859 21.213,0 46.398,-46.398 46.398,-121.893 0,-168.291 z"
     id="path6" /><path
     inkscape:connector-curvature="0"
     d="m 457.4,126.605 c -5.857,-5.858 -15.355,-5.858 -21.213,0 -5.858,5.858 -5.858,15.355 0,21.213 60.666,60.666 60.666,155.709 0,216.375 -5.858,5.858 -5.858,15.355 0,21.213 5.857,5.858 15.355,5.859 21.213,0 72.774,-72.774 72.851,-185.95 0,-258.801 z"
     id="path8" /></g></svg>