<?xml version="1.0" encoding="UTF-8" standalone="no"?>
<!-- Generator: Adobe Illustrator 19.0.0, SVG Export Plug-In . SVG Version: 6.00 Build 0)  -->

<svg
   xmlns:dc="http://purl.org/dc/elements/1.1/"
   xmlns:cc="http://creativecommons.org/ns#"
   xmlns:rdf="http://www.w3.org/1999/02/22-rdf-syntax-ns#"
   xmlns:svg="http://www.w3.org/2000/svg"
   xmlns="http://www.w3.org/2000/svg"
   xmlns:sodipodi="http://sodipodi.sourceforge.net/DTD/sodipodi-0.dtd"
   xmlns:inkscape="http://www.inkscape.org/namespaces/inkscape"
   version="1.1"
   id="Capa_1"
   x="0px"
   y="0px"
   viewBox="0 0 334.367 334.367"
   style="enable-background:new 0 0 334.367 334.367;"
   xml:space="preserve"
   sodipodi:docname="camera.svg"
   inkscape:version="0.92.5 (2060ec1f9f, 2020-04-08)"><metadata
   id="metadata51"><rdf:RDF><cc:Work
       rdf:about=""><dc:format>image/svg+xml</dc:format><dc:type
         rdf:resource="http://purl.org/dc/dcmitype/StillImage" /></cc:Work></rdf:RDF></metadata><defs
   id="defs49" /><sodipodi:namedview
   pagecolor="#ffffff"
   bordercolor="#666666"
   borderopacity="1"
   objecttolerance="10"
   gridtolerance="10"
   guidetolerance="10"
   inkscape:pageopacity="0"
   inkscape:pageshadow="2"
   inkscape:window-width="640"
   inkscape:window-height="480"
   id="namedview47"
   showgrid="false"
   inkscape:zoom="0.70581127"
   inkscape:cx="167.1835"
   inkscape:cy="167.1835"
   inkscape:window-x="0"
   inkscape:window-y="27"
   inkscape:window-maximized="0"
   inkscape:current-layer="Capa_1" />

<g
   id="g16">
</g>
<g
   id="g18">
</g>
<g
   id="g20">
</g>
<g
   id="g22">
</g>
<g
   id="g24">
</g>
<g
   id="g26">
</g>
<g
   id="g28">
</g>
<g
   id="g30">
</g>
<g
   id="g32">
</g>
<g
   id="g34">
</g>
<g
   id="g36">
</g>
<g
   id="g38">
</g>
<g
   id="g40">
</g>
<g
   id="g42">
</g>
<g
   id="g44">
</g>
<g
   transform="translate(0.1983384,-2.803397)"
   id="g14"><g
     id="g12"><g
       id="g10"><path
         inkscape:connector-curvature="0"
         d="m 330.804,171.002 c -3.6,-6.4 -12,-8.8 -18.8,-4.8 l -45.6,26.4 -11.6,6.8 v 63.2 l 10.8,6.4 c 0.4,0 0.4,0.4 0.8,0.4 l 44.8,26 c 2,1.6 4.8,2.4 7.6,2.4 7.6,0 13.6,-6 13.6,-13.6 v -53.6 l 0.4,-52.8 c 0,-2.4 -0.4,-4.8 -2,-6.8 z"
         id="path2" /><path
         inkscape:connector-curvature="0"
         d="m 64.404,150.602 c 35.6,0 64.4,-28.8 64.4,-64.4 0,-35.6 -28.8,-64.4 -64.4,-64.4 -35.6,0 -64.4,28.8 -64.4,64.4 -0.4,35.6 28.8,64.4 64.4,64.4 z m 0,-90.8 c 14.8,0 26.4,12 26.4,26.4 0,14.8 -12,26.4 -26.4,26.4 -14.4,0 -26.4,-12 -26.4,-26.4 -0.4,-14.8 11.6,-26.4 26.4,-26.4 z"
         id="path4" /><path
         inkscape:connector-curvature="0"
         d="m 227.604,154.202 c -10.4,5.2 -22,8.4 -34.4,8.4 -15.2,0 -29.6,-4.4 -41.6,-12.4 h -45.6 c -12,8 -26.4,12.4 -41.6,12.4 -12.4,0 -24,-2.8 -34.4,-8.4 -9.2,5.2 -15.6,15.6 -15.6,26.8 v 97.6 c 0,18 14.8,32.4 32.4,32.4 h 164.4 c 18,0 32.4,-14.8 32.4,-32.4 v -97.6 c -0.4,-11.2 -6.8,-21.6 -16,-26.8 z"
         id="path6" /><path
         inkscape:connector-curvature="0"
         d="m 193.204,150.602 c 35.6,0 64.4,-28.8 64.4,-64.4 0,-35.6 -28.8,-64.4 -64.4,-64.4 -35.6,0 -64.4,28.8 -64.4,64.4 0,35.6 28.8,64.4 64.4,64.4 z m 0,-90.8 c 14.8,0 26.4,12 26.4,26.4 0,14.8 -12,26.4 -26.4,26.4 -14.4,0 -26.4,-12 -26.4,-26.4 0,-14.8 11.6,-26.4 26.4,-26.4 z"
         id="path8" /></g></g></g></svg>