<?xml version="1.0" encoding="UTF-8" standalone="no"?>
<svg
   xmlns:dc="http://purl.org/dc/elements/1.1/"
   xmlns:cc="http://creativecommons.org/ns#"
   xmlns:rdf="http://www.w3.org/1999/02/22-rdf-syntax-ns#"
   xmlns:svg="http://www.w3.org/2000/svg"
   xmlns="http://www.w3.org/2000/svg"
   xmlns:sodipodi="http://sodipodi.sourceforge.net/DTD/sodipodi-0.dtd"
   xmlns:inkscape="http://www.inkscape.org/namespaces/inkscape"
   version="1.1"
   id="Capa_1"
   x="0px"
   y="0px"
   viewBox="0 0 512 512"
   style="enable-background:new 0 0 512 512;"
   xml:space="preserve"
   sodipodi:docname="close.svg"
   inkscape:version="1.0.1 (3bc2e813f5, 2020-09-07)"><metadata
   id="metadata55"><rdf:RDF><cc:Work
       rdf:about=""><dc:format>image/svg+xml</dc:format><dc:type
         rdf:resource="http://purl.org/dc/dcmitype/StillImage" /><dc:title></dc:title></cc:Work></rdf:RDF></metadata><defs
   id="defs53" /><sodipodi:namedview
   pagecolor="#ffffff"
   bordercolor="#666666"
   borderopacity="1"
   objecttolerance="10"
   gridtolerance="10"
   guidetolerance="10"
   inkscape:pageopacity="0"
   inkscape:pageshadow="2"
   inkscape:window-width="1720"
   inkscape:window-height="1302"
   id="namedview51"
   showgrid="false"
   inkscape:zoom="1.6835938"
   inkscape:cx="256"
   inkscape:cy="256"
   inkscape:window-x="1145"
   inkscape:window-y="359"
   inkscape:window-maximized="0"
   inkscape:current-layer="Capa_1" />



<g
   id="g20">
</g>
<g
   id="g22">
</g>
<g
   id="g24">
</g>
<g
   id="g26">
</g>
<g
   id="g28">
</g>
<g
   id="g30">
</g>
<g
   id="g32">
</g>
<g
   id="g34">
</g>
<g
   id="g36">
</g>
<g
   id="g38">
</g>
<g
   id="g40">
</g>
<g
   id="g42">
</g>
<g
   id="g44">
</g>
<g
   id="g46">
</g>
<g
   id="g48">
</g>
<path
   d="M 338.65238,256.51907 489.49613,105.67531 c 16.66667,-16.666666 16.66667,-43.687499 0,-60.328125 L 469.38676,25.237809 c -16.67188,-16.6718772 -43.69271,-16.6718772 -60.33334,0 L 258.21488,176.07635 107.37111,25.206559 c -16.666664,-16.6666682 -43.687494,-16.6666682 -60.328124,0 l -20.14063,20.109375 c -16.66666,16.671877 -16.66666,43.69271 0,60.333336 L 177.77215,256.51907 26.933606,407.35762 c -16.67187,16.67188 -16.67187,43.69271 0,60.33334 l 20.10938,20.10937 c 16.66667,16.66667 43.687503,16.66667 60.328124,0 L 258.21488,336.95658 409.05342,487.80033 c 16.67188,16.66667 43.69271,16.66667 60.33334,0 l 20.10937,-20.10937 c 16.66667,-16.67188 16.66667,-43.69271 0,-60.33334 z m 0,0"
   id="path2"
   style="stroke-width:1.33333" /></svg>
