<?xml version="1.0" encoding="UTF-8" standalone="no"?>
<svg
   xmlns:dc="http://purl.org/dc/elements/1.1/"
   xmlns:cc="http://creativecommons.org/ns#"
   xmlns:rdf="http://www.w3.org/1999/02/22-rdf-syntax-ns#"
   xmlns:svg="http://www.w3.org/2000/svg"
   xmlns="http://www.w3.org/2000/svg"
   xmlns:sodipodi="http://sodipodi.sourceforge.net/DTD/sodipodi-0.dtd"
   xmlns:inkscape="http://www.inkscape.org/namespaces/inkscape"
   version="1.1"
   id="Capa_1"
   x="0px"
   y="0px"
   viewBox="0 0 512 512"
   style="enable-background:new 0 0 512 512;"
   xml:space="preserve"
   sodipodi:docname="close.svg"
   inkscape:version="1.0.1 (3bc2e813f5, 2020-09-07)"><metadata
   id="metadata55"><rdf:RDF><cc:Work
       rdf:about=""><dc:format>image/svg+xml</dc:format><dc:type
         rdf:resource="http://purl.org/dc/dcmitype/StillImage" /><dc:title /></cc:Work></rdf:RDF></metadata><defs
   id="defs53" /><sodipodi:namedview
   pagecolor="#ffffff"
   bordercolor="#666666"
   borderopacity="1"
   objecttolerance="10"
   gridtolerance="10"
   guidetolerance="10"
   inkscape:pageopacity="0"
   inkscape:pageshadow="2"
   inkscape:window-width="1720"
   inkscape:window-height="1080"
   id="namedview51"
   showgrid="false"
   inkscape:zoom="1.6835938"
   inkscape:cx="256"
   inkscape:cy="256"
   inkscape:window-x="1920"
   inkscape:window-y="359"
   inkscape:window-maximized="0"
   inkscape:current-layer="Capa_1"
   inkscape:document-rotation="0" />



<g
   id="g20">
</g>
<g
   id="g22">
</g>
<g
   id="g24">
</g>
<g
   id="g26">
</g>
<g
   id="g28">
</g>
<g
   id="g30">
</g>
<g
   id="g32">
</g>
<g
   id="g34">
</g>
<g
   id="g36">
</g>
<g
   id="g38">
</g>
<g
   id="g40">
</g>
<g
   id="g42">
</g>
<g
   id="g44">
</g>
<g
   id="g46">
</g>
<g
   id="g48">
</g>
<path
   d="M 329.04154,256.5172 461.86567,123.69306 c 14.67569,-14.67568 14.67569,-38.468636 0,-53.121392 L 444.15854,52.864534 c -14.68027,-14.680274 -38.47323,-14.680274 -53.12599,0 L 258.21301,185.68408 125.38886,52.837018 c -14.67568,-14.675688 -38.468632,-14.675688 -53.121391,0 L 54.532815,70.54415 c -14.67568,14.680274 -14.67568,38.47323 0,53.12599 L 187.37988,256.5172 54.560332,389.33675 c -14.680268,14.68028 -14.680268,38.47323 0,53.12599 l 17.707137,17.70713 c 14.675689,14.67569 38.468641,14.67569 53.121391,0 L 258.21301,327.34574 391.03255,460.16987 c 14.68028,14.67569 38.47323,14.67569 53.12599,0 l 17.70713,-17.70713 c 14.67569,-14.68027 14.67569,-38.47323 0,-53.12599 z m 0,0"
   id="path2"
   style="stroke-width:1.17405" /></svg>
