<?xml version="1.0" encoding="UTF-8" standalone="no"?>
<!-- Generator: Adobe Illustrator 19.0.0, SVG Export Plug-In . SVG Version: 6.00 Build 0)  -->

<svg
   xmlns:dc="http://purl.org/dc/elements/1.1/"
   xmlns:cc="http://creativecommons.org/ns#"
   xmlns:rdf="http://www.w3.org/1999/02/22-rdf-syntax-ns#"
   xmlns:svg="http://www.w3.org/2000/svg"
   xmlns="http://www.w3.org/2000/svg"
   xmlns:sodipodi="http://sodipodi.sourceforge.net/DTD/sodipodi-0.dtd"
   xmlns:inkscape="http://www.inkscape.org/namespaces/inkscape"
   version="1.1"
   id="Capa_1"
   x="0px"
   y="0px"
   viewBox="0 0 334.367 334.367"
   style="enable-background:new 0 0 334.367 334.367;"
   xml:space="preserve"
   sodipodi:docname="container.svg"
   inkscape:version="0.92.5 (2060ec1f9f, 2020-04-08)"><metadata
   id="metadata51"><rdf:RDF><cc:Work
       rdf:about=""><dc:format>image/svg+xml</dc:format><dc:type
         rdf:resource="http://purl.org/dc/dcmitype/StillImage" /></cc:Work></rdf:RDF></metadata><defs
   id="defs49" /><sodipodi:namedview
   pagecolor="#ffffff"
   bordercolor="#666666"
   borderopacity="1"
   objecttolerance="10"
   gridtolerance="10"
   guidetolerance="10"
   inkscape:pageopacity="0"
   inkscape:pageshadow="2"
   inkscape:window-width="1532"
   inkscape:window-height="1468"
   id="namedview47"
   showgrid="false"
   inkscape:zoom="1.9963357"
   inkscape:cx="162.84805"
   inkscape:cy="279.78473"
   inkscape:window-x="0"
   inkscape:window-y="27"
   inkscape:window-maximized="0"
   inkscape:current-layer="Capa_1" />

<g
   id="g16">
</g>
<g
   id="g18">
</g>
<g
   id="g20">
</g>
<g
   id="g22">
</g>
<g
   id="g24">
</g>
<g
   id="g26">
</g>
<g
   id="g28">
</g>
<g
   id="g30">
</g>
<g
   id="g32">
</g>
<g
   id="g34">
</g>
<g
   id="g36">
</g>
<g
   id="g38">
</g>
<g
   id="g40">
</g>
<g
   id="g42">
</g>
<g
   id="g44">
</g>
<path
   style="stroke-width:13.90440083"
   inkscape:connector-curvature="0"
   d="m 322.71336,335.44707 h -159.9006 c -5.75643,0 -10.42831,-4.67188 -10.42831,-10.42831 v -104.283 c 0,-5.75641 4.67188,-10.42829 10.42831,-10.42829 h 159.9006 c 5.75642,0 10.4283,4.67188 10.4283,10.42829 v 104.283 c 0,5.75643 -4.67188,10.42831 -10.4283,10.42831 z M 173.24105,314.59046 H 312.28506 V 231.16407 H 173.24105 Z"
   id="path14" /><path
   style="stroke-width:13.90440083"
   inkscape:connector-curvature="0"
   d="m 211.47815,283.30556 c -5.75642,0 -10.42829,-4.67187 -10.42829,-10.42829 v -48.6654 c 0,-5.75642 4.67187,-10.4283 10.42829,-10.4283 5.75643,0 10.4283,4.67188 10.4283,10.4283 v 48.6654 c 0,5.75642 -4.67187,10.42829 -10.4283,10.42829 z"
   id="path16" /><path
   style="stroke-width:13.90440083"
   inkscape:connector-curvature="0"
   d="m 274.04796,283.30556 c -5.75643,0 -10.4283,-4.67187 -10.4283,-10.42829 v -48.6654 c 0,-5.75642 4.67187,-10.4283 10.4283,-10.4283 5.75642,0 10.42829,4.67188 10.42829,10.4283 v 48.6654 c 0,5.75642 -4.67187,10.42829 -10.42829,10.42829 z"
   id="path18" /><path
   style="stroke-width:13.90440083"
   inkscape:connector-curvature="0"
   d="m 242.76305,331.97097 c -5.75641,0 -10.4283,-4.67188 -10.4283,-10.42829 v -41.71321 c 0,-5.75642 4.67189,-10.4283 10.4283,-10.4283 5.75642,0 10.42831,4.67188 10.42831,10.4283 v 41.71321 c 0,5.75641 -4.67189,10.42829 -10.42831,10.42829 z"
   id="path20" /><path
   style="stroke-width:13.90440083"
   inkscape:connector-curvature="0"
   d="M 319.23726,286.78167 H 166.28885 c -5.75642,0 -10.4283,-4.67188 -10.4283,-10.4283 0,-5.75641 4.67188,-10.42831 10.4283,-10.42831 h 152.94841 c 5.75642,0 10.4283,4.6719 10.4283,10.42831 0,5.75642 -4.67188,10.4283 -10.4283,10.4283 z"
   id="path22" /><path
   d="m 176.25317,53.352691 h -31.28489 c -20.12662,0 -36.49904,16.372437 -36.49904,36.499062 v 52.141497 c 0,20.12662 16.37242,36.49906 36.49904,36.49906 h 31.28489 c 8.63463,0 15.64247,-7.00782 15.64247,-15.64247 0,-8.63463 -7.00784,-15.64244 -15.64247,-15.64244 h -31.28489 c -2.87821,0 -5.21415,-2.33594 -5.21415,-5.21415 V 89.851753 c 0,-2.878216 2.33594,-5.214153 5.21415,-5.214153 h 31.28489 c 8.63463,0 15.64247,-7.007814 15.64247,-15.642447 0,-8.634633 -7.00784,-15.642462 -15.64247,-15.642462 z"
   id="path24"
   inkscape:connector-curvature="0"
   style="stroke-width:20.85660172" /><path
   style="stroke-width:13.90440083"
   d="M 114.14735,335.44707 H 45.928878 c -21.092972,0 -38.2370968,-17.14412 -38.2370968,-38.2371 V 39.978546 c 0,-21.092973 17.1441248,-38.2370978 38.2370968,-38.2370978 H 267.09576 c 21.09297,0 38.2371,17.1441248 38.2371,38.2370978 V 172.07035 c 0,5.75644 -4.67188,10.42831 -10.42829,10.42831 -5.75644,0 -10.42832,-4.67187 -10.42832,-10.42831 V 39.978546 c 0,-9.580124 -7.80036,-17.380498 -17.38049,-17.380498 H 45.928878 c -9.580123,0 -17.380497,7.800374 -17.380497,17.380498 V 297.20997 c 0,9.58012 7.800374,17.38049 17.380497,17.38049 h 68.218472 c 5.75642,0 10.42829,4.67188 10.42829,10.4283 0,5.75643 -4.67187,10.42831 -10.42829,10.42831 z"
   id="path34"
   inkscape:connector-curvature="0"
   sodipodi:nodetypes="sssssssssssssssssss" /></svg>