<?xml version="1.0" encoding="UTF-8" standalone="no"?>
<!-- Generator: Adobe Illustrator 19.0.0, SVG Export Plug-In . SVG Version: 6.00 Build 0)  -->

<svg
   xmlns:dc="http://purl.org/dc/elements/1.1/"
   xmlns:cc="http://creativecommons.org/ns#"
   xmlns:rdf="http://www.w3.org/1999/02/22-rdf-syntax-ns#"
   xmlns:svg="http://www.w3.org/2000/svg"
   xmlns="http://www.w3.org/2000/svg"
   xmlns:sodipodi="http://sodipodi.sourceforge.net/DTD/sodipodi-0.dtd"
   xmlns:inkscape="http://www.inkscape.org/namespaces/inkscape"
   version="1.1"
   id="Layer_1"
   x="0px"
   y="0px"
   viewBox="0 0 512 512"
   style="enable-background:new 0 0 512 512;"
   xml:space="preserve"
   sodipodi:docname="export.svg"
   inkscape:version="0.92.5 (2060ec1f9f, 2020-04-08)"><metadata
   id="metadata109"><rdf:RDF><cc:Work
       rdf:about=""><dc:format>image/svg+xml</dc:format><dc:type
         rdf:resource="http://purl.org/dc/dcmitype/StillImage" /></cc:Work></rdf:RDF></metadata><defs
   id="defs107" /><sodipodi:namedview
   pagecolor="#ffffff"
   bordercolor="#666666"
   borderopacity="1"
   objecttolerance="10"
   gridtolerance="10"
   guidetolerance="10"
   inkscape:pageopacity="0"
   inkscape:pageshadow="2"
   inkscape:window-width="1349"
   inkscape:window-height="1037"
   id="namedview105"
   showgrid="false"
   inkscape:zoom="0.4609375"
   inkscape:cx="256"
   inkscape:cy="256"
   inkscape:window-x="892"
   inkscape:window-y="596"
   inkscape:window-maximized="0"
   inkscape:current-layer="g4" />












<g
   id="g74">
</g>
<g
   id="g76">
</g>
<g
   id="g78">
</g>
<g
   id="g80">
</g>
<g
   id="g82">
</g>
<g
   id="g84">
</g>
<g
   id="g86">
</g>
<g
   id="g88">
</g>
<g
   id="g90">
</g>
<g
   id="g92">
</g>
<g
   id="g94">
</g>
<g
   id="g96">
</g>
<g
   id="g98">
</g>
<g
   id="g100">
</g>
<g
   id="g102">
</g>
<g
   id="g6"
   transform="translate(4.20339,2.33898)"><g
     id="g4"><path
       inkscape:connector-curvature="0"
       d="M 5.7598653,268.28835 101.75899,348.2894 c 4.76795,3.96805 11.42395,4.83212 17.02397,2.20818 5.63203,-2.62393 9.21609,-8.28789 9.21616,-14.49589 l 5.3e-4,-48 240,0.003 c 8.832,9e-5 16.00008,-7.16783 16.00017,-15.99983 l 3.6e-4,-32 c 9e-5,-8.832 -7.16783,-16.00008 -15.99983,-16.00017 l -240,-0.003 5.3e-4,-48 c 7e-5,-6.208 -3.58387,-11.84004 -9.21584,-14.49611 -2.14399,-0.99202 -4.47999,-1.50404 -6.78399,-1.50407 -3.68,-4e-5 -7.32801,1.24792 -10.24004,3.71189 L 5.7601347,243.71235 C 2.0801014,246.75231 5.1920387e-5,251.26428 0,256.00028 c -5.1923485e-5,4.736 2.0798986,9.24803 5.7598653,12.28807 z"
       id="path2" /></g></g><g
   id="g12"
   transform="translate(4.20339,2.33898)"><g
     id="g10"><path
       inkscape:connector-curvature="0"
       d="M 480,0 H 32 C 14.336,0 0,14.336 0,32 V 192 H 64 V 64 H 448 V 448 H 64 V 320 H 0 v 160 c 0,17.696 14.336,32 32,32 h 448 c 17.696,0 32,-14.304 32,-32 V 32 C 512,14.336 497.696,0 480,0 Z"
       id="path8" /></g></g></svg>