<?xml version="1.0" encoding="UTF-8" standalone="no"?>
<svg
   xmlns:dc="http://purl.org/dc/elements/1.1/"
   xmlns:cc="http://creativecommons.org/ns#"
   xmlns:rdf="http://www.w3.org/1999/02/22-rdf-syntax-ns#"
   xmlns:svg="http://www.w3.org/2000/svg"
   xmlns="http://www.w3.org/2000/svg"
   xmlns:sodipodi="http://sodipodi.sourceforge.net/DTD/sodipodi-0.dtd"
   xmlns:inkscape="http://www.inkscape.org/namespaces/inkscape"
   version="1.1"
   id="Capa_1"
   x="0px"
   y="0px"
   viewBox="0 0 512 512"
   style="enable-background:new 0 0 512 512;"
   xml:space="preserve"
   sodipodi:docname="eyeClosed.svg"
   inkscape:version="1.0.1 (3bc2e813f5, 2020-09-07)"><metadata
   id="metadata55"><rdf:RDF><cc:Work
       rdf:about=""><dc:format>image/svg+xml</dc:format><dc:type
         rdf:resource="http://purl.org/dc/dcmitype/StillImage" /><dc:title></dc:title></cc:Work></rdf:RDF></metadata><defs
   id="defs53" /><sodipodi:namedview
   pagecolor="#ffffff"
   bordercolor="#666666"
   borderopacity="1"
   objecttolerance="10"
   gridtolerance="10"
   guidetolerance="10"
   inkscape:pageopacity="0"
   inkscape:pageshadow="2"
   inkscape:window-width="1920"
   inkscape:window-height="1051"
   id="namedview51"
   showgrid="false"
   inkscape:zoom="1.3964844"
   inkscape:cx="256"
   inkscape:cy="256"
   inkscape:window-x="0"
   inkscape:window-y="0"
   inkscape:window-maximized="1"
   inkscape:current-layer="Capa_1" />



<g
   id="g20">
</g>
<g
   id="g22">
</g>
<g
   id="g24">
</g>
<g
   id="g26">
</g>
<g
   id="g28">
</g>
<g
   id="g30">
</g>
<g
   id="g32">
</g>
<g
   id="g34">
</g>
<g
   id="g36">
</g>
<g
   id="g38">
</g>
<g
   id="g40">
</g>
<g
   id="g42">
</g>
<g
   id="g44">
</g>
<g
   id="g46">
</g>
<g
   id="g48">
</g>
<path
   d="m 478.1316,224.80303 3.51623,-2.3203 c 6.84277,-4.73286 8.45171,-14.0775 3.71454,-20.87569 -4.77769,-6.85916 -14.17451,-8.40687 -20.87578,-3.73869 -234.46686,163.92593 -405.142551,8.06716 -412.312651,1.37003 -6.05053,-5.66236 -15.58505,-5.37523 -21.21927,0.63808 -5.66252,6.03829 -5.38764,15.48399 0.60186,21.1667 0.32335,0.3104 5.66253,5.19415 15.40721,12.4244 l -30.03434,49.53184 c -4.28431,7.06522 -2.03705,16.28839 5.03197,20.609 2.41696,1.45451 5.16131,2.18665 7.81676,2.18665 5.04817,0 9.96295,-2.56691 12.82048,-7.18594 l 29.36746,-48.39204 c 16.46618,10.02359 37.580361,20.96872 62.736321,30.21629 l -14.47353,48.38799 c -2.39704,7.96625 2.08576,16.27623 10.00331,18.64472 l 4.3164,0.63808 c 6.39784,0 12.37992,-4.20344 14.32807,-10.70665 l 14.33212,-47.72518 c 23.21996,6.34957 49.19634,10.63793 77.23002,11.6564 v 47.9273 c 0,8.29391 6.69705,14.99087 14.99096,14.99087 8.28531,0 14.98683,-6.69705 14.98683,-14.99087 v -48.19433 c 24.46083,-1.34165 50.38469,-5.54939 77.4524,-13.26916 l 18.45073,48.65476 c 2.29961,5.99433 7.99902,9.66388 14.01679,9.66388 l 5.3028,-0.94592 c 7.74036,-2.94198 11.66452,-11.58769 8.72212,-19.32365 l -17.96506,-47.40442 c 24.64672,-9.15454 50.12196,-21.20714 76.43384,-37.19633 l 24.28697,32.41899 c 2.95836,3.91631 7.47307,6.01845 11.98381,6.01845 3.1446,0 6.28491,-0.9536 8.98078,-3.01094 6.64446,-4.97171 7.98611,-14.36843 3.03942,-20.98486 z"
   id="path2"
   style="stroke-width:4.04177" /></svg>
