<?xml version="1.0" encoding="UTF-8" standalone="no"?>
<svg
   xmlns:dc="http://purl.org/dc/elements/1.1/"
   xmlns:cc="http://creativecommons.org/ns#"
   xmlns:rdf="http://www.w3.org/1999/02/22-rdf-syntax-ns#"
   xmlns:svg="http://www.w3.org/2000/svg"
   xmlns="http://www.w3.org/2000/svg"
   xmlns:sodipodi="http://sodipodi.sourceforge.net/DTD/sodipodi-0.dtd"
   xmlns:inkscape="http://www.inkscape.org/namespaces/inkscape"
   version="1.1"
   id="Capa_1"
   x="0px"
   y="0px"
   viewBox="0 0 512 512"
   style="enable-background:new 0 0 512 512;"
   xml:space="preserve"
   sodipodi:docname="eyeOpened.svg"
   inkscape:version="1.0.1 (3bc2e813f5, 2020-09-07)"><metadata
   id="metadata55"><rdf:RDF><cc:Work
       rdf:about=""><dc:format>image/svg+xml</dc:format><dc:type
         rdf:resource="http://purl.org/dc/dcmitype/StillImage" /><dc:title></dc:title></cc:Work></rdf:RDF></metadata><defs
   id="defs53" /><sodipodi:namedview
   pagecolor="#ffffff"
   bordercolor="#666666"
   borderopacity="1"
   objecttolerance="10"
   gridtolerance="10"
   guidetolerance="10"
   inkscape:pageopacity="0"
   inkscape:pageshadow="2"
   inkscape:window-width="1920"
   inkscape:window-height="1051"
   id="namedview51"
   showgrid="false"
   inkscape:zoom="1.3964844"
   inkscape:cx="256"
   inkscape:cy="256"
   inkscape:window-x="0"
   inkscape:window-y="0"
   inkscape:window-maximized="1"
   inkscape:current-layer="Capa_1" />



<g
   id="g20">
</g>
<g
   id="g22">
</g>
<g
   id="g24">
</g>
<g
   id="g26">
</g>
<g
   id="g28">
</g>
<g
   id="g30">
</g>
<g
   id="g32">
</g>
<g
   id="g34">
</g>
<g
   id="g36">
</g>
<g
   id="g38">
</g>
<g
   id="g40">
</g>
<g
   id="g42">
</g>
<g
   id="g44">
</g>
<g
   id="g46">
</g>
<g
   id="g48">
</g>
<g
   id="g65"
   transform="matrix(21.333333,0,0,21.333333,1.0892903,-12.088935)"><path
     d="m 12,19.844693 c -5.0441376,0 -9.6411278,-2.973139 -11.70951187,-7.576666 -0.0771395,-0.171276 -0.0771395,-0.364778 0,-0.536054 C 2.3588722,7.1284456 6.9558624,4.1553069 12,4.1553069 c 5.044138,0 9.641128,2.9731387 11.709512,7.5766661 0.07714,0.171276 0.07714,0.364778 0,0.536054 C 21.641128,16.871554 17.044138,19.844693 12,19.844693 Z M 1.6083966,12 C 3.5211942,15.981182 7.5677484,18.537244 12,18.537244 16.432252,18.537244 20.478806,15.981182 22.391603,12 20.478806,8.0188183 16.432252,5.4627558 12,5.4627558 7.5677484,5.4627558 3.5211942,8.0188183 1.6083966,12 Z"
     id="path4"
     style="stroke-width:1.30745" /><path
     d="M 12,15.922347 C 9.8374796,15.922347 8.0776535,14.16252 8.0776535,12 8.0776535,9.8374796 9.8374796,8.0776535 12,8.0776535 c 2.16252,0 3.922347,1.7598261 3.922347,3.9223465 0,2.16252 -1.759827,3.922347 -3.922347,3.922347 z m 0,-6.5372447 c -1.442116,0 -2.6148977,1.1727817 -2.6148977,2.6148977 0,1.442116 1.1727817,2.614898 2.6148977,2.614898 1.442116,0 2.614898,-1.172782 2.614898,-2.614898 0,-1.442116 -1.172782,-2.6148977 -2.614898,-2.6148977 z"
     id="path6"
     style="stroke-width:1.30745" /></g></svg>
