<?xml version="1.0" encoding="UTF-8" standalone="no"?>
<!-- Generator: Adobe Illustrator 19.0.0, SVG Export Plug-In . SVG Version: 6.00 Build 0)  -->

<svg
   xmlns:dc="http://purl.org/dc/elements/1.1/"
   xmlns:cc="http://creativecommons.org/ns#"
   xmlns:rdf="http://www.w3.org/1999/02/22-rdf-syntax-ns#"
   xmlns:svg="http://www.w3.org/2000/svg"
   xmlns="http://www.w3.org/2000/svg"
   xmlns:sodipodi="http://sodipodi.sourceforge.net/DTD/sodipodi-0.dtd"
   xmlns:inkscape="http://www.inkscape.org/namespaces/inkscape"
   version="1.1"
   id="Layer_1"
   x="0px"
   y="0px"
   viewBox="0 0 512 512"
   style="enable-background:new 0 0 512 512;"
   xml:space="preserve"
   sodipodi:docname="folder_add.svg"
   inkscape:version="0.92.5 (2060ec1f9f, 2020-04-08)"><metadata
   id="metadata109"><rdf:RDF><cc:Work
       rdf:about=""><dc:format>image/svg+xml</dc:format><dc:type
         rdf:resource="http://purl.org/dc/dcmitype/StillImage" /></cc:Work></rdf:RDF></metadata><defs
   id="defs107" /><sodipodi:namedview
   pagecolor="#ffffff"
   bordercolor="#666666"
   borderopacity="1"
   objecttolerance="10"
   gridtolerance="10"
   guidetolerance="10"
   inkscape:pageopacity="0"
   inkscape:pageshadow="2"
   inkscape:window-width="640"
   inkscape:window-height="480"
   id="namedview105"
   showgrid="false"
   inkscape:zoom="0.4609375"
   inkscape:cx="256"
   inkscape:cy="256"
   inkscape:window-x="1723"
   inkscape:window-y="923"
   inkscape:window-maximized="0"
   inkscape:current-layer="g6" />












<g
   id="g74">
</g>
<g
   id="g76">
</g>
<g
   id="g78">
</g>
<g
   id="g80">
</g>
<g
   id="g82">
</g>
<g
   id="g84">
</g>
<g
   id="g86">
</g>
<g
   id="g88">
</g>
<g
   id="g90">
</g>
<g
   id="g92">
</g>
<g
   id="g94">
</g>
<g
   id="g96">
</g>
<g
   id="g98">
</g>
<g
   id="g100">
</g>
<g
   id="g102">
</g>
<g
   transform="translate(2.3389851,3.525422)"
   id="g6"><path
     inkscape:connector-curvature="0"
     d="m 143,305.814 h -30 v 50.761 H 62.239 v 30 H 113 v 50.761 h 30 v -50.761 h 50.761 v -30 H 143 Z"
     id="path2" /><path
     inkscape:connector-curvature="0"
     d="M 512,12.425 H 282.67 c -19.07,0 -35.19,12.87 -40.12,30.38 H 89.53 C 48.297,42.805 19,88.633 19,126.335 V 304.544 C 6.959,324.053 0,347.015 0,371.575 c 0,70.579 57.421,128 128,128 63.881,0 116.98,-47.04 126.484,-108.3 H 512 Z M 89.53,72.805 H 241 v 43 H 50.19 c 4.56,-20.98 21.5,-43 39.34,-43 z M 128,469.575 c -54.037,0 -98,-43.963 -98,-98 0,-54.037 43.963,-98 98,-98 54.037,0 98,43.963 98,98 0,54.037 -43.963,98 -98,98 z m 353.99,-108.3 H 255.584 c -5.263,-65.781 -60.473,-117.7 -127.584,-117.7 -29.786,0 -57.228,10.227 -79,27.354 V 145.805 h 222 v -91.71 c 0,-6.43 5.24,-11.67 11.67,-11.67 h 199.32 z"
     id="path4" /></g></svg>