<?xml version="1.0" encoding="UTF-8" standalone="no"?>
<!-- Generator: Adobe Illustrator 19.0.0, SVG Export Plug-In . SVG Version: 6.00 Build 0)  -->

<svg
   xmlns:dc="http://purl.org/dc/elements/1.1/"
   xmlns:cc="http://creativecommons.org/ns#"
   xmlns:rdf="http://www.w3.org/1999/02/22-rdf-syntax-ns#"
   xmlns:svg="http://www.w3.org/2000/svg"
   xmlns="http://www.w3.org/2000/svg"
   xmlns:sodipodi="http://sodipodi.sourceforge.net/DTD/sodipodi-0.dtd"
   xmlns:inkscape="http://www.inkscape.org/namespaces/inkscape"
   version="1.1"
   id="Layer_1"
   x="0px"
   y="0px"
   viewBox="0 0 512 512"
   style="enable-background:new 0 0 512 512;"
   xml:space="preserve"
   sodipodi:docname="folder.svg"
   inkscape:version="0.92.5 (2060ec1f9f, 2020-04-08)"><metadata
   id="metadata109"><rdf:RDF><cc:Work
       rdf:about=""><dc:format>image/svg+xml</dc:format><dc:type
         rdf:resource="http://purl.org/dc/dcmitype/StillImage" /></cc:Work></rdf:RDF></metadata><defs
   id="defs107" /><sodipodi:namedview
   pagecolor="#ffffff"
   bordercolor="#666666"
   borderopacity="1"
   objecttolerance="10"
   gridtolerance="10"
   guidetolerance="10"
   inkscape:pageopacity="0"
   inkscape:pageshadow="2"
   inkscape:window-width="640"
   inkscape:window-height="480"
   id="namedview105"
   showgrid="false"
   inkscape:zoom="0.4609375"
   inkscape:cx="256"
   inkscape:cy="256"
   inkscape:window-x="174"
   inkscape:window-y="275"
   inkscape:window-maximized="0"
   inkscape:current-layer="Layer_1" />












<g
   id="g74">
</g>
<g
   id="g76">
</g>
<g
   id="g78">
</g>
<g
   id="g80">
</g>
<g
   id="g82">
</g>
<g
   id="g84">
</g>
<g
   id="g86">
</g>
<g
   id="g88">
</g>
<g
   id="g90">
</g>
<g
   id="g92">
</g>
<g
   id="g94">
</g>
<g
   id="g96">
</g>
<g
   id="g98">
</g>
<g
   id="g100">
</g>
<g
   id="g102">
</g>
<path
   style="stroke-width:1.15316701"
   inkscape:connector-curvature="0"
   d="m 452.24583,199.18532 h -31.8512 V 153.3008 c -0.0424,-30.08038 -26.74069,-54.45801 -59.69509,-54.49244 h -83.74375 c -9.61287,0.005 -18.90044,-3.17202 -26.14665,-8.93072 L 224.12505,68.672016 c -10.32949,-8.203351 -23.55368,-12.72251 -37.2446,-12.72251 H 67.396011 C 34.446328,55.983915 7.743372,80.36158 7.705655,110.44196 v 287.30231 c 0.04246,33.33847 28.621768,60.83649 65.088464,62.62693 v 0.0861 H 410.97504 c 27.00468,-0.0474 50.25192,-17.43104 55.61231,-41.59778 l 41.23778,-157.55941 0.0708,-0.29698 c 3.29072,-15.19728 -1.05133,-30.94117 -11.82397,-42.91048 -10.77737,-11.96935 -26.85383,-18.90734 -43.82605,-18.90734 z M 24.607155,397.74427 V 110.44196 C 24.635465,88.87481 43.776337,71.400728 67.400729,71.374908 H 186.88516 c 9.61287,0 18.90045,3.172022 26.15138,8.935022 l 26.68409,21.20131 c 10.32477,8.20335 23.54895,12.72252 37.23516,12.72252 h 83.74375 c 23.62441,0.0258 42.77001,17.5042 42.7983,39.07135 v 45.88021 h -8.0288 c -4.09691,-19.98758 -23.19537,-34.48763 -45.47141,-34.51775 h -2.791 C 343.1003,144.2668 323.6341,129.43965 300.9102,129.40953 H 106.59713 c -31.313756,0.0344 -56.691937,23.19833 -56.724935,51.78525 V 438.33492 C 34.210609,429.80448 24.616582,414.38769 24.607155,397.74427 Z M 349.99763,180.09296 c 12.95546,0.0129 24.3787,7.76434 28.12203,19.09236 H 234.62425 c -26.24566,-0.0731 -49.08744,16.35937 -55.155,39.66962 l -52.57145,169.47277 -0.0943,0.3228 c -1.97537,7.66535 -6.01571,14.75828 -11.75798,20.63319 V 216.45282 c 0.0236,-20.07367 17.84441,-36.33834 39.82815,-36.35986 z M 66.768976,444.19693 V 181.19478 c 0.02359,-20.07368 17.844407,-36.33834 39.828154,-36.35985 H 300.9102 c 13.40334,0.0129 25.19903,8.08713 28.96591,19.83264 H 154.87367 c -31.31374,0.0301 -56.68722,23.19835 -56.72494,51.78525 v 224.24069 c -9.806177,4.11888 -20.776822,5.3412 -31.379754,3.50342 z M 491.35265,257.86984 450.1196,415.41633 l -0.0707,0.30128 c -3.71974,17.01786 -20.06964,29.27985 -39.07382,29.31428 h -289.3481 c 10.73964,-8.57349 18.28284,-19.9876 21.57829,-32.65846 l 52.57144,-169.46846 0.0943,-0.3228 c 4.21005,-16.4196 20.27709,-28.0188 38.75323,-27.97144 H 452.2458 c 11.88999,0 23.15293,4.84626 30.71972,13.21747 7.56678,8.37119 10.64064,19.38933 8.3871,30.04595 z m 0,0"
   id="path2" /></svg>