<?xml version="1.0" encoding="UTF-8" standalone="no"?>
<!-- Generator: Adobe Illustrator 19.0.0, SVG Export Plug-In . SVG Version: 6.00 Build 0)  -->

<svg
   xmlns:dc="http://purl.org/dc/elements/1.1/"
   xmlns:cc="http://creativecommons.org/ns#"
   xmlns:rdf="http://www.w3.org/1999/02/22-rdf-syntax-ns#"
   xmlns:svg="http://www.w3.org/2000/svg"
   xmlns="http://www.w3.org/2000/svg"
   xmlns:sodipodi="http://sodipodi.sourceforge.net/DTD/sodipodi-0.dtd"
   xmlns:inkscape="http://www.inkscape.org/namespaces/inkscape"
   version="1.1"
   id="Layer_1"
   x="0px"
   y="0px"
   viewBox="0 0 512 512"
   style="enable-background:new 0 0 512 512;"
   xml:space="preserve"
   sodipodi:docname="geometry.svg"
   inkscape:version="0.92.5 (2060ec1f9f, 2020-04-08)"><metadata
   id="metadata109"><rdf:RDF><cc:Work
       rdf:about=""><dc:format>image/svg+xml</dc:format><dc:type
         rdf:resource="http://purl.org/dc/dcmitype/StillImage" /></cc:Work></rdf:RDF></metadata><defs
   id="defs107" /><sodipodi:namedview
   pagecolor="#ffffff"
   bordercolor="#666666"
   borderopacity="1"
   objecttolerance="10"
   gridtolerance="10"
   guidetolerance="10"
   inkscape:pageopacity="0"
   inkscape:pageshadow="2"
   inkscape:window-width="640"
   inkscape:window-height="480"
   id="namedview105"
   showgrid="false"
   inkscape:zoom="0.4609375"
   inkscape:cx="256"
   inkscape:cy="256"
   inkscape:window-x="1081"
   inkscape:window-y="512"
   inkscape:window-maximized="0"
   inkscape:current-layer="Layer_1" />












<g
   id="g74">
</g>
<g
   id="g76">
</g>
<g
   id="g78">
</g>
<g
   id="g80">
</g>
<g
   id="g82">
</g>
<g
   id="g84">
</g>
<g
   id="g86">
</g>
<g
   id="g88">
</g>
<g
   id="g90">
</g>
<g
   id="g92">
</g>
<g
   id="g94">
</g>
<g
   id="g96">
</g>
<g
   id="g98">
</g>
<g
   id="g100">
</g>
<g
   id="g102">
</g>
<path
   style="stroke-width:1.00137889"
   inkscape:connector-curvature="0"
   d="m 492.7749,124.72048 c 0.028,-4.81363 -2.6116,-10.7468 -8.22132,-13.48056 L 268.64928,1.6279834 c -4.20579,-2.13594112 -9.17063,-2.17199076 -13.40546,-0.097134 L 39.637931,107.11223 c -4.486178,2.2461 -8.450637,7.13082 -8.414587,13.49058 v 268.78712 c 0,5.69384 3.219433,10.89801 8.313448,13.44051 L 255.14368,510.4306 c 3.54488,1.66029 8.41759,2.48342 13.40746,0.003 L 484.45545,402.83344 c 5.09902,-2.5405 8.32145,-7.74667 8.32145,-13.44351 V 124.8076 c -0.001,-0.029 -0.002,-0.0581 -0.002,-0.0871 z M 261.72875,31.804536 445.14031,124.92076 354.31324,173.06605 C 302.84837,117.34332 217.8253,119.75264 170.24277,171.60304 L 78.828897,121.37087 Z m 94.72143,224.510154 c 0.84817,45.58577 -34.04388,86.30183 -79.57958,93.30147 V 248.1194 l 68.40419,-36.25993 c 7.21193,13.37241 11.17539,28.56233 11.17539,44.45522 z m -188.90212,-0.96333 c 0,-15.66157 3.92941,-30.99769 11.38668,-44.69354 l 67.89349,37.30837 v 101.61492 c -47.06681,-7.83378 -80.01718,-48.10824 -79.28017,-94.22975 z m 94.43003,-33.33891 -64.3446,-35.35769 c 34.89806,-33.56321 93.86625,-32.08818 128.96258,1.10452 z M 61.26371,145.99578 152.61049,196.1919 c -43.31264,81.50923 10.57156,173.62608 94.21874,183.71197 v 92.80379 L 61.26371,380.10014 Z M 276.8706,472.72168 V 379.9299 c 91.6492,-11.90639 134.24185,-109.06117 94.96577,-182.15082 l 90.89716,-48.18335 v 230.4974 z"
   id="path2" /></svg>