<?xml version="1.0" encoding="UTF-8" standalone="no"?>
<!-- Generator: Adobe Illustrator 19.0.0, SVG Export Plug-In . SVG Version: 6.00 Build 0)  -->

<svg
   xmlns:dc="http://purl.org/dc/elements/1.1/"
   xmlns:cc="http://creativecommons.org/ns#"
   xmlns:rdf="http://www.w3.org/1999/02/22-rdf-syntax-ns#"
   xmlns:svg="http://www.w3.org/2000/svg"
   xmlns="http://www.w3.org/2000/svg"
   xmlns:sodipodi="http://sodipodi.sourceforge.net/DTD/sodipodi-0.dtd"
   xmlns:inkscape="http://www.inkscape.org/namespaces/inkscape"
   version="1.1"
   id="Layer_1"
   x="0px"
   y="0px"
   viewBox="0 0 512 512"
   style="enable-background:new 0 0 512 512;"
   xml:space="preserve"
   sodipodi:docname="HBD.svg"
   inkscape:version="0.92.5 (2060ec1f9f, 2020-04-08)"><metadata
   id="metadata109"><rdf:RDF><cc:Work
       rdf:about=""><dc:format>image/svg+xml</dc:format><dc:type
         rdf:resource="http://purl.org/dc/dcmitype/StillImage" /></cc:Work></rdf:RDF></metadata><defs
   id="defs107" /><sodipodi:namedview
   pagecolor="#ffffff"
   bordercolor="#666666"
   borderopacity="1"
   objecttolerance="10"
   gridtolerance="10"
   guidetolerance="10"
   inkscape:pageopacity="0"
   inkscape:pageshadow="2"
   inkscape:window-width="640"
   inkscape:window-height="480"
   id="namedview105"
   showgrid="false"
   inkscape:zoom="0.4609375"
   inkscape:cx="256"
   inkscape:cy="256"
   inkscape:window-x="0"
   inkscape:window-y="27"
   inkscape:window-maximized="0"
   inkscape:current-layer="Layer_1" />












<g
   id="g74">
</g>
<g
   id="g76">
</g>
<g
   id="g78">
</g>
<g
   id="g80">
</g>
<g
   id="g82">
</g>
<g
   id="g84">
</g>
<g
   id="g86">
</g>
<g
   id="g88">
</g>
<g
   id="g90">
</g>
<g
   id="g92">
</g>
<g
   id="g94">
</g>
<g
   id="g96">
</g>
<g
   id="g98">
</g>
<g
   id="g100">
</g>
<g
   id="g102">
</g>
<g
   transform="matrix(1.0025279,0,0,1.0025279,2.1684753,2.1696715)"
   id="g8"><path
     inkscape:connector-curvature="0"
     d="m 500.707,448.233 h -79.933 v -71.089 c 5.409,-5.777 8.382,-13.269 8.381,-21.22 v -54.266 c 0,-5.522 -4.478,-10 -10,-10 H 365.06 v -72.5 c 0,-2.923 -1.262,-5.545 -3.262,-7.374 0.564,-0.804 1.109,-1.627 1.608,-2.492 5.855,-10.142 5.855,-22.25 0,-32.391 l -19.391,-33.586 c -1.786,-3.094 -5.088,-5 -8.66,-5 -3.572,0 -6.874,1.906 -8.66,5 l -19.391,33.586 c -5.855,10.141 -5.855,22.249 0,32.391 0.499,0.865 1.044,1.688 1.608,2.492 -2,1.828 -3.262,4.45 -3.262,7.374 v 72.5 h -20.59 v -72.5 c 0,-2.923 -1.262,-5.545 -3.262,-7.374 0.564,-0.804 1.109,-1.627 1.608,-2.492 5.855,-10.142 5.855,-22.25 0,-32.391 l -19.391,-33.586 c -1.786,-3.094 -5.088,-5 -8.66,-5 -3.572,0 -6.874,1.906 -8.66,5 l -19.391,33.586 c -5.855,10.141 -5.855,22.249 0,32.391 0.499,0.865 1.044,1.688 1.608,2.492 -2,1.828 -3.262,4.45 -3.262,7.374 v 72.5 h -20.59 v -72.5 c 0,-2.923 -1.262,-5.545 -3.262,-7.374 0.564,-0.804 1.109,-1.627 1.608,-2.492 5.855,-10.142 5.855,-22.25 0,-32.391 l -19.391,-33.586 c -1.786,-3.094 -5.088,-5 -8.66,-5 -3.572,0 -6.874,1.906 -8.66,5 l -19.391,33.586 c -5.855,10.141 -5.855,22.249 0,32.391 0.499,0.865 1.044,1.688 1.608,2.492 -2,1.828 -3.262,4.45 -3.262,7.374 v 72.5 H 91.554 c -5.522,0 -10,4.478 -10,10 v 54.266 c 0,8.188 3.188,15.642 8.381,21.2 v 71.109 H 10.002 c -5.522,0 -10,4.478 -10,10 0,27.706 22.541,50.246 50.247,50.246 H 460.46 c 27.706,0 50.247,-22.54 50.247,-50.246 0,-5.522 -4.477,-10 -10,-10 z m -176.083,-261.33 10.73,-18.586 10.73,18.586 c 3.229,5.592 1.075,10.528 0,12.391 -1.075,1.863 -4.274,6.195 -10.73,6.195 -6.456,0 -9.655,-4.333 -10.73,-6.195 -1.075,-1.862 -3.228,-6.799 0,-12.391 z m 1.025,42.256 h 19.41 v 62.5 h -19.41 z m -81.025,-42.256 10.73,-18.586 10.73,18.586 c 3.229,5.592 1.075,10.528 0,12.391 -1.075,1.863 -4.274,6.195 -10.73,6.195 -6.456,0 -9.655,-4.333 -10.73,-6.195 -1.075,-1.862 -3.228,-6.799 0,-12.391 z m 1.025,42.256 h 19.41 v 62.5 h -19.41 z m -81.025,-42.256 10.73,-18.586 10.73,18.586 c 3.229,5.592 1.075,10.528 0,12.391 -1.075,1.863 -4.274,6.195 -10.73,6.195 -6.456,0 -9.655,-4.333 -10.73,-6.195 -1.075,-1.862 -3.228,-6.799 0,-12.391 z m 1.025,42.256 h 19.41 v 62.5 h -19.41 z m -64.095,82.5 h 307.602 l 10e-4,44.266 c 0,6.111 -4.972,11.083 -11.083,11.083 -6.111,0 -11.083,-4.972 -11.083,-11.083 0,-7.113 -7.559,-12.026 -14.059,-9.134 -5.635,2.507 -5.941,7.898 -5.941,13.236 0,8.845 -7.196,16.04 -16.041,16.04 -8.845,0 -16.04,-7.195 -16.04,-16.04 0,-7.572 -8.502,-12.467 -15.047,-8.635 -5.175,3.031 -4.953,8.422 -4.953,13.634 0,12.607 -11.244,23.258 -24.554,23.258 -13.317,0 -25,-10.868 -25,-23.258 0,-5.522 -4.478,-10 -10,-10 -5.446,0.049 -10.001,4.516 -10.001,10 0,12.39 -11.683,23.258 -25,23.258 -13.31,0 -24.554,-10.65 -24.554,-23.258 0,-5.213 0.223,-10.603 -4.953,-13.634 -6.545,-3.833 -15.047,1.06 -15.047,8.635 0,8.845 -7.195,16.04 -16.04,16.04 -8.845,0 -16.041,-7.195 -16.041,-16.04 0,-5.339 -0.3,-10.726 -5.941,-13.236 -6.498,-2.891 -14.059,2.019 -14.059,9.134 0,6.111 -4.972,11.083 -11.083,11.083 -6.111,0 -11.083,-4.972 -11.083,-11.083 z M 460.46,488.479 H 50.249 c -13.176,0 -24.41,-8.467 -28.548,-20.246 h 188.985 c 5.522,0 10,-4.478 10,-10 0,-5.522 -4.478,-10 -10,-10 H 109.935 v -61.35 c 0.891,0.077 1.791,0.125 2.702,0.125 6.706,0 12.925,-2.136 18.009,-5.762 6.562,8.978 17.169,14.82 29.115,14.82 8.709,0 16.707,-3.105 22.944,-8.267 7.979,12.196 22.03,20.483 37.649,20.483 13.956,0 26.673,-6.485 35.001,-16.426 8.327,9.94 21.044,16.426 35,16.426 15.619,0 29.671,-8.287 37.649,-20.483 6.237,5.161 14.235,8.267 22.944,8.267 11.946,0 22.554,-5.843 29.115,-14.82 5.084,3.626 11.303,5.762 18.009,5.762 0.907,0 1.807,-0.046 2.701,-0.122 v 61.348 H 299.855 c -5.522,0 -10,4.478 -10,10 0,5.522 4.478,10 10,10 h 189.152 c -4.137,11.778 -15.371,20.245 -28.547,20.245 z"
     id="path2" /><path
     inkscape:connector-curvature="0"
     d="m 7.833,21.995 c 4.867,1.081 9.743,2.128 14.626,3.145 l 29.274,69.4 c 2.77,6.569 11.708,8.147 16.556,2.902 l 52.09,-56.33 c 28.053,3.341 56.228,5.661 84.436,6.915 l 20.388,31.281 21.783,33.319 c 1.848,2.826 4.995,4.528 8.37,4.528 h 0.032 c 3.387,-0.011 6.538,-1.735 8.373,-4.582 l 21.511,-33.375 20.146,-31.161 c 29.21,-1.287 58.381,-3.693 87.418,-7.216 l 52.358,56.62 c 4.847,5.244 13.786,3.666 16.556,-2.902 l 29.551,-70.057 c 3.862,-0.816 7.724,-1.632 11.577,-2.488 5.391,-1.197 8.791,-6.539 7.593,-11.93 -1.197,-5.394 -6.548,-8.79 -11.93,-7.594 -79.743,17.713 -163.02,26.687 -244.685,26.687 -0.979,0 0.979,0.003 0,0 C 173.211,28.944 90.919,19.964 12.17,2.471 6.78,1.269 1.439,4.674 0.24,10.065 c -1.198,5.391 2.202,10.733 7.593,11.93 z m 56.3,50.482 -17.484,-41.45 49.103,7.259 z m 385.215,0 -31.618,-34.191 49.103,-7.259 z M 255.295,88.79 230.291,50.489 280.066,50.411 Z"
     id="path4" /><circle
     cx="255.355"
     cy="457.82199"
     r="10"
     id="circle6" /></g></svg>