<?xml version="1.0" encoding="UTF-8" standalone="no"?>
<!-- Generator: Adobe Illustrator 19.0.0, SVG Export Plug-In . SVG Version: 6.00 Build 0)  -->

<svg
   xmlns:dc="http://purl.org/dc/elements/1.1/"
   xmlns:cc="http://creativecommons.org/ns#"
   xmlns:rdf="http://www.w3.org/1999/02/22-rdf-syntax-ns#"
   xmlns:svg="http://www.w3.org/2000/svg"
   xmlns="http://www.w3.org/2000/svg"
   xmlns:sodipodi="http://sodipodi.sourceforge.net/DTD/sodipodi-0.dtd"
   xmlns:inkscape="http://www.inkscape.org/namespaces/inkscape"
   version="1.1"
   id="Layer_1"
   x="0px"
   y="0px"
   viewBox="0 0 512 512"
   style="enable-background:new 0 0 512 512;"
   xml:space="preserve"
   sodipodi:docname="import.svg"
   inkscape:version="0.92.5 (2060ec1f9f, 2020-04-08)"><metadata
   id="metadata109"><rdf:RDF><cc:Work
       rdf:about=""><dc:format>image/svg+xml</dc:format><dc:type
         rdf:resource="http://purl.org/dc/dcmitype/StillImage" /></cc:Work></rdf:RDF></metadata><defs
   id="defs107" /><sodipodi:namedview
   pagecolor="#ffffff"
   bordercolor="#666666"
   borderopacity="1"
   objecttolerance="10"
   gridtolerance="10"
   guidetolerance="10"
   inkscape:pageopacity="0"
   inkscape:pageshadow="2"
   inkscape:window-width="640"
   inkscape:window-height="480"
   id="namedview105"
   showgrid="false"
   inkscape:zoom="0.4609375"
   inkscape:cx="256"
   inkscape:cy="256"
   inkscape:window-x="0"
   inkscape:window-y="27"
   inkscape:window-maximized="0"
   inkscape:current-layer="Layer_1" />












<g
   id="g74">
</g>
<g
   id="g76">
</g>
<g
   id="g78">
</g>
<g
   id="g80">
</g>
<g
   id="g82">
</g>
<g
   id="g84">
</g>
<g
   id="g86">
</g>
<g
   id="g88">
</g>
<g
   id="g90">
</g>
<g
   id="g92">
</g>
<g
   id="g94">
</g>
<g
   id="g96">
</g>
<g
   id="g98">
</g>
<g
   id="g100">
</g>
<g
   id="g102">
</g>
<g
   id="g6"
   transform="translate(4.20339,2.33898)"><g
     id="g4"><path
       inkscape:connector-curvature="0"
       d="m 378.24,243.712 -96,-80 c -4.768,-3.968 -11.424,-4.832 -17.024,-2.208 C 259.584,164.128 256,169.792 256,176 v 48 H 16 c -8.832,0 -16,7.168 -16,16 v 32 c 0,8.832 7.168,16 16,16 h 240 v 48 c 0,6.208 3.584,11.84 9.216,14.496 2.144,0.992 4.48,1.504 6.784,1.504 3.68,0 7.328,-1.248 10.24,-3.712 l 96,-80 c 3.68,-3.04 5.76,-7.552 5.76,-12.288 0,-4.736 -2.08,-9.248 -5.76,-12.288 z"
       id="path2" /></g></g><g
   id="g12"
   transform="translate(4.20339,2.33898)"><g
     id="g10"><path
       inkscape:connector-curvature="0"
       d="M 480,0 H 32 C 14.336,0 0,14.336 0,32 V 192 H 64 V 64 H 448 V 448 H 64 V 320 H 0 v 160 c 0,17.696 14.336,32 32,32 h 448 c 17.696,0 32,-14.304 32,-32 V 32 C 512,14.336 497.696,0 480,0 Z"
       id="path8" /></g></g></svg>