<?xml version="1.0" encoding="UTF-8" standalone="no"?>
<svg
   xmlns:dc="http://purl.org/dc/elements/1.1/"
   xmlns:cc="http://creativecommons.org/ns#"
   xmlns:rdf="http://www.w3.org/1999/02/22-rdf-syntax-ns#"
   xmlns:svg="http://www.w3.org/2000/svg"
   xmlns="http://www.w3.org/2000/svg"
   xmlns:sodipodi="http://sodipodi.sourceforge.net/DTD/sodipodi-0.dtd"
   xmlns:inkscape="http://www.inkscape.org/namespaces/inkscape"
   version="1.1"
   viewBox="0 0 512 512"
   enable-background="new 0 0 512 512"
   id="svg18"
   sodipodi:docname="info.svg"
   inkscape:version="1.0.1 (0767f8302a, 2020-10-17)">
  <metadata
     id="metadata24">
    <rdf:RDF>
      <cc:Work
         rdf:about="">
        <dc:format>image/svg+xml</dc:format>
        <dc:type
           rdf:resource="http://purl.org/dc/dcmitype/StillImage" />
      </cc:Work>
    </rdf:RDF>
  </metadata>
  <defs
     id="defs22" />
  <sodipodi:namedview
     pagecolor="#ffffff"
     bordercolor="#666666"
     borderopacity="1"
     objecttolerance="10"
     gridtolerance="10"
     guidetolerance="10"
     inkscape:pageopacity="0"
     inkscape:pageshadow="2"
     inkscape:window-width="960"
     inkscape:window-height="1051"
     id="namedview20"
     showgrid="false"
     inkscape:zoom="1.3964844"
     inkscape:cx="256"
     inkscape:cy="256"
     inkscape:window-x="0"
     inkscape:window-y="0"
     inkscape:window-maximized="0"
     inkscape:current-layer="svg18"
     inkscape:document-rotation="0" />
  <g
     id="g6"
     transform="matrix(0.93719888,0,0,0.93719888,17.266273,14.83189)">
    <g
       id="g4">
      <path
         d="M 256,0 C 114.51,0 0,114.497 0,256 0,397.49 114.497,512 256,512 397.49,512 512,397.503 512,256 512,114.51 397.503,0 256,0 Z m 0,477.867 C 133.663,477.867 34.133,378.338 34.133,256 34.133,133.662 133.663,34.133 256,34.133 c 122.337,0 221.867,99.53 221.867,221.867 0,122.337 -99.53,221.867 -221.867,221.867 z"
         id="path2" />
    </g>
  </g>
  <g
     id="g12"
     transform="matrix(0.93719888,0,0,0.93719888,17.266273,14.83189)">
    <g
       id="g10">
      <path
         d="m 255.997,209.777 c -9.425,0 -17.067,7.641 -17.067,17.067 v 143.969 c 0,9.425 7.641,17.067 17.067,17.067 9.426,0 17.067,-7.641 17.067,-17.067 v -143.97 c -0.001,-9.426 -7.642,-17.066 -17.067,-17.066 z"
         id="path8" />
    </g>
  </g>
  <g
     id="g18"
     transform="matrix(0.93719888,0,0,0.93719888,17.266273,14.83189)">
    <g
       id="g16">
      <path
         d="m 256,124.122 c -18.821,0 -34.133,15.312 -34.133,34.133 0,18.821 15.312,34.133 34.133,34.133 18.821,0 34.133,-15.312 34.133,-34.133 0,-18.821 -15.312,-34.133 -34.133,-34.133 z"
         id="path14" />
    </g>
  </g>
</svg>
