<?xml version="1.0" encoding="UTF-8" standalone="no"?>
<svg
   xmlns:dc="http://purl.org/dc/elements/1.1/"
   xmlns:cc="http://creativecommons.org/ns#"
   xmlns:rdf="http://www.w3.org/1999/02/22-rdf-syntax-ns#"
   xmlns:svg="http://www.w3.org/2000/svg"
   xmlns="http://www.w3.org/2000/svg"
   xmlns:sodipodi="http://sodipodi.sourceforge.net/DTD/sodipodi-0.dtd"
   xmlns:inkscape="http://www.inkscape.org/namespaces/inkscape"
   version="1.1"
   viewBox="0 0 512 512"
   enable-background="new 0 0 512 512"
   id="svg18"
   sodipodi:docname="material.svg"
   inkscape:version="0.92.5 (2060ec1f9f, 2020-04-08)">
  <metadata
     id="metadata24">
    <rdf:RDF>
      <cc:Work
         rdf:about="">
        <dc:format>image/svg+xml</dc:format>
        <dc:type
           rdf:resource="http://purl.org/dc/dcmitype/StillImage" />
      </cc:Work>
    </rdf:RDF>
  </metadata>
  <defs
     id="defs22" />
  <sodipodi:namedview
     pagecolor="#ffffff"
     bordercolor="#666666"
     borderopacity="1"
     objecttolerance="10"
     gridtolerance="10"
     guidetolerance="10"
     inkscape:pageopacity="0"
     inkscape:pageshadow="2"
     inkscape:window-width="1126"
     inkscape:window-height="1123"
     id="namedview20"
     showgrid="false"
     inkscape:zoom="1.3964844"
     inkscape:cx="256"
     inkscape:cy="256"
     inkscape:window-x="741"
     inkscape:window-y="430"
     inkscape:window-maximized="0"
     inkscape:current-layer="svg18"
     inkscape:document-rotation="0" />
  <path
     style="stroke-width:1.00392163"
     inkscape:connector-curvature="0"
     d="M 421.96694,180.134 C 423.58727,87.04235 348.42768,11.442038 256.35803,11.442038 164.35564,11.442038 89.127784,86.97509 90.749124,180.134 37.137704,207.59025 0.3580239,263.41833 0.3580239,327.67734 c 0,91.3378 74.3092801,165.64707 165.6470561,165.64707 33.31113,0 64.35037,-9.89164 90.35295,-26.88 26.00157,16.98836 57.04182,26.88 90.35294,26.88 91.33779,0 165.64707,-74.30927 165.64707,-165.64707 0,-64.25901 -36.77968,-120.08709 -90.3911,-147.54334 z M 256.35803,428.60158 c -25.64518,-22.98378 -42.50805,-55.57007 -44.87831,-92.04756 28.84468,8.12875 60.09475,8.35765 89.75662,0 -2.37026,36.47849 -19.23313,69.06479 -44.87831,92.04756 z M 213.00468,305.50774 c 5.13305,-31.06735 20.86651,-58.60292 43.35335,-78.75463 22.48583,20.15171 38.21929,47.68728 43.35335,78.75463 -27.17817,9.19994 -57.86303,9.76414 -86.7067,0 z M 184.9009,292.19875 c -32.45478,-20.21998 -55.77688,-53.77204 -62.24917,-92.94005 34.68951,-11.74287 74.35445,-9.25414 108.66649,9.69889 -22.86733,22.23385 -39.35172,50.9932 -46.41732,83.24116 z m 96.49594,-83.24116 c 34.30801,-18.95002 73.97396,-21.44276 108.66648,-9.69889 -6.47228,39.16801 -29.79439,72.72107 -62.24916,92.94005 -7.0646,-32.24796 -23.54899,-61.00731 -46.41732,-83.24116 z M 256.35803,41.559688 c 71.74827,0 130.64232,56.042912 135.23125,126.651742 -44.88132,-12.64741 -94.34353,-6.0145 -135.23125,20.69885 C 215.53858,162.24211 166.05428,155.55097 121.12678,168.21143 125.7157,97.6026 184.60976,41.559688 256.35803,41.559688 Z M 166.00508,463.20676 c -74.731916,0 -135.529406,-60.79749 -135.529406,-135.52942 0,-48.52354 25.63715,-91.16511 64.07229,-115.10965 10.716856,48.91408 43.100346,89.81083 86.554096,112.06476 -0.81519,46.78475 17.79852,90.24653 50.21616,121.76465 -19.38171,10.70582 -41.64769,16.80966 -65.31314,16.80966 z m 180.70589,0 c -23.66645,0 -45.93142,-6.10384 -65.31413,-16.80966 32.36543,-31.46692 51.03234,-74.90862 50.21716,-121.76465 43.45374,-22.25393 75.83724,-63.15068 86.5541,-112.06476 38.43514,23.94454 64.07229,66.58611 64.07229,115.10965 0,74.73193 -60.7985,135.52942 -135.52942,135.52942 z"
     id="path2" />
</svg>
