<?xml version="1.0" encoding="UTF-8" standalone="no"?>
<svg
   xmlns:dc="http://purl.org/dc/elements/1.1/"
   xmlns:cc="http://creativecommons.org/ns#"
   xmlns:rdf="http://www.w3.org/1999/02/22-rdf-syntax-ns#"
   xmlns:svg="http://www.w3.org/2000/svg"
   xmlns="http://www.w3.org/2000/svg"
   xmlns:sodipodi="http://sodipodi.sourceforge.net/DTD/sodipodi-0.dtd"
   xmlns:inkscape="http://www.inkscape.org/namespaces/inkscape"
   version="1.1"
   viewBox="0 0 512 512"
   enable-background="new 0 0 512 512"
   id="svg18"
   sodipodi:docname="material.svg"
   inkscape:version="1.0.1 (0767f8302a, 2020-10-17)">
  <metadata
     id="metadata24">
    <rdf:RDF>
      <cc:Work
         rdf:about="">
        <dc:format>image/svg+xml</dc:format>
        <dc:type
           rdf:resource="http://purl.org/dc/dcmitype/StillImage" />
      </cc:Work>
    </rdf:RDF>
  </metadata>
  <defs
     id="defs22" />
  <sodipodi:namedview
     pagecolor="#ffffff"
     bordercolor="#666666"
     borderopacity="1"
     objecttolerance="10"
     gridtolerance="10"
     guidetolerance="10"
     inkscape:pageopacity="0"
     inkscape:pageshadow="2"
     inkscape:window-width="1858"
     inkscape:window-height="1645"
     id="namedview20"
     showgrid="false"
     inkscape:zoom="1.3964844"
     inkscape:cx="256"
     inkscape:cy="256"
     inkscape:window-x="0"
     inkscape:window-y="0"
     inkscape:window-maximized="0"
     inkscape:current-layer="svg18"
     inkscape:document-rotation="0" />
  <circle
     cx="76.689896"
     cy="429.00946"
     r="14.565162"
     id="circle2"
     style="stroke-width:0.970946" />
  <path
     d="M 495.78806,199.26038 379.2658,82.73812 c -4.11875,-4.120695 -10.29882,-5.38778 -15.70796,-3.224512 l -41.27201,16.508992 16.509,-41.271999 c 2.16424,-5.410111 0.89521,-11.58824 -3.22451,-15.707964 L 306.43902,9.911344 c -5.6878,-5.688773 -14.91081,-5.688773 -20.59861,0 L 151.28671,144.46504 c -28.39726,28.39726 -28.39726,74.60166 0,102.99892 l 7.59862,7.59863 c 6.35581,6.35678 5.51886,16.85368 -1.78557,22.11717 -51.565,37.16102 -116.475649,84.90146 -132.883665,101.30268 -28.3836648,28.39532 -28.3836648,74.59876 0.0039,102.99893 28.398228,28.3856 74.600695,28.38172 102.999895,-0.004 16.40219,-16.40995 64.13972,-81.3177 101.29783,-132.87881 5.2567,-7.29278 15.75068,-8.15206 22.11815,-1.78654 l 7.59862,7.59862 c 28.39629,28.39726 74.60263,28.39726 102.99892,0 l 51.4281,-51.4281 v 66.20396 c 0,23.86391 19.13734,43.72461 42.66142,44.27319 24.64844,0.56995 44.73149,-19.21308 44.73149,-43.68286 V 209.5592 c 0,-3.86242 -1.53507,-7.56755 -4.26634,-10.29882 z m -216.95497,134.55369 -7.59863,-7.59862 c -19.04801,-19.04899 -50.61832,-16.47307 -66.34862,5.35283 -50.89213,70.61884 -86.70936,117.75341 -98.26265,129.31155 -17.040098,17.03234 -44.767403,17.03331 -61.80265,0.004 -17.032335,-17.0401 -17.032335,-44.76644 -0.0039,-61.80266 11.558141,-11.55328 58.69271,-47.37051 129.31641,-98.2675 21.85308,-15.74971 24.3756,-47.32488 5.35185,-66.34862 l -7.59862,-7.59863 c -17.03913,-17.03913 -17.03913,-44.76352 0,-61.80265 l 1.90694,-1.90694 168.75041,168.75042 -1.90694,1.90693 c -17.0401,17.03816 -44.76449,17.03816 -61.80362,0 z M 363.14033,311.30949 194.38991,142.55907 296.1402,40.808788 l 12.03973,12.03973 -25.56404,63.908632 c -4.73724,11.84166 7.05004,23.6872 18.93345,18.93345 l 63.90864,-25.56404 27.33407,27.33408 -6.7607,6.76166 c -28.46328,28.46231 -28.46716,74.53273 0,102.99893 l 20.59765,20.59862 z m 107.78374,58.46745 c 0,8.09478 -6.64224,14.75838 -14.92052,14.56128 -7.83554,-0.18254 -14.2098,-6.97916 -14.2098,-15.15064 V 267.81985 c 0,-3.86243 -1.53506,-7.56756 -4.26633,-10.29883 l -30.89745,-30.89744 c -17.03913,-17.03913 -17.03913,-44.76353 0,-61.80266 l 6.76167,-6.76069 57.53243,57.53243 z"
     id="path4"
     style="stroke-width:0.970946" />
</svg>
