<?xml version="1.0" encoding="UTF-8" standalone="no"?>
<!-- Generator: Adobe Illustrator 19.0.0, SVG Export Plug-In . SVG Version: 6.00 Build 0)  -->

<svg
   xmlns:dc="http://purl.org/dc/elements/1.1/"
   xmlns:cc="http://creativecommons.org/ns#"
   xmlns:rdf="http://www.w3.org/1999/02/22-rdf-syntax-ns#"
   xmlns:svg="http://www.w3.org/2000/svg"
   xmlns="http://www.w3.org/2000/svg"
   xmlns:sodipodi="http://sodipodi.sourceforge.net/DTD/sodipodi-0.dtd"
   xmlns:inkscape="http://www.inkscape.org/namespaces/inkscape"
   version="1.1"
   id="Capa_1"
   x="0px"
   y="0px"
   viewBox="0 0 448 448"
   style="enable-background:new 0 0 448 448;"
   xml:space="preserve"
   sodipodi:docname="settings.svg"
   inkscape:version="0.92.5 (2060ec1f9f, 2020-04-08)"><metadata
   id="metadata55"><rdf:RDF><cc:Work
       rdf:about=""><dc:format>image/svg+xml</dc:format><dc:type
         rdf:resource="http://purl.org/dc/dcmitype/StillImage" /></cc:Work></rdf:RDF></metadata><defs
   id="defs53" /><sodipodi:namedview
   pagecolor="#ffffff"
   bordercolor="#666666"
   borderopacity="1"
   objecttolerance="10"
   gridtolerance="10"
   guidetolerance="10"
   inkscape:pageopacity="0"
   inkscape:pageshadow="2"
   inkscape:window-width="1428"
   inkscape:window-height="1180"
   id="namedview51"
   showgrid="false"
   inkscape:zoom="1.0535714"
   inkscape:cx="383.00753"
   inkscape:cy="293.58144"
   inkscape:window-x="0"
   inkscape:window-y="27"
   inkscape:window-maximized="0"
   inkscape:current-layer="Capa_1" />



<g
   id="g20">
</g>
<g
   id="g22">
</g>
<g
   id="g24">
</g>
<g
   id="g26">
</g>
<g
   id="g28">
</g>
<g
   id="g30">
</g>
<g
   id="g32">
</g>
<g
   id="g34">
</g>
<g
   id="g36">
</g>
<g
   id="g38">
</g>
<g
   id="g40">
</g>
<g
   id="g42">
</g>
<g
   id="g44">
</g>
<g
   id="g46">
</g>
<g
   id="g48">
</g>
<path
   style="stroke-width:0.87358761"
   inkscape:connector-curvature="0"
   d="m 224.47458,117.86073 c -58.95353,0 -106.91894,47.96541 -106.91894,106.91893 0,58.95351 47.96541,106.91893 106.91894,106.91893 58.9535,0 106.91892,-47.96542 106.91892,-106.91893 0,-58.95352 -47.96542,-106.91893 -106.91892,-106.91893 z m 0,187.10813 c -44.21514,0 -80.1892,-35.97406 -80.1892,-80.1892 0,-44.21513 35.97406,-80.18919 80.1892,-80.18919 44.21513,0 80.18919,35.97406 80.18919,80.18919 0,44.21514 -35.97406,80.1892 -80.18919,80.1892 z m 0,0"
   id="path2" /><path
   style="stroke-width:0.87358761"
   inkscape:connector-curvature="0"
   d="m 437.589,173.85224 -34.37704,-7.47328 c -2.9893,-9.15219 -6.6918,-18.07917 -11.06316,-26.67855 l 19.03124,-29.60301 c 3.3988,-5.2893 2.65147,-12.23364 -1.79152,-16.676656 L 355.8335,39.865733 c -4.44302,-4.443007 -11.38736,-5.190341 -16.67666,-1.791536 L 309.55383,57.105434 C 300.95445,52.73408 292.02747,49.031575 282.87528,46.042263 L 275.402,11.665232 C 274.06774,5.5228157 268.62829,1.1412315 262.34256,1.1412315 h -75.73597 c -6.28573,0 -11.72518,4.3815842 -13.05943,10.5240005 l -7.47329,34.377031 c -9.15218,2.989312 -18.07917,6.691817 -26.67854,11.063171 L 109.79231,38.074197 c -5.2893,-3.398805 -12.23364,-2.651471 -16.676667,1.791536 L 39.560639,93.420744 C 35.117632,97.86376 34.370298,104.8081 37.769103,110.0974 l 19.031249,29.60301 c -4.371354,8.59938 -8.07386,17.52636 -11.063171,26.67855 l -34.377031,7.47328 c -6.1424285,1.33767 -10.5240127,6.77371 -10.5240127,13.05944 v 75.73597 c 0,6.28573 4.3815842,11.72176 10.5240127,13.05943 l 34.377031,7.47329 c 2.989311,9.15219 6.691817,18.07917 11.063171,26.67855 l -19.031249,29.60301 c -3.398805,5.2893 -2.651471,12.23364 1.791536,16.67666 l 53.555015,53.555 c 4.443016,4.44301 11.387356,5.19034 16.676656,1.79154 l 29.60302,-19.03124 c 8.59937,4.37136 17.52636,8.07386 26.67854,11.06316 l 7.47329,34.37703 c 1.33425,6.14242 6.7737,10.52402 13.05943,10.52402 h 75.73597 c 6.28573,0 11.72518,-4.3816 13.05944,-10.52402 l 7.47328,-34.37703 c 9.15219,-2.9893 18.07917,-6.6918 26.67855,-11.06316 l 29.60301,19.03124 c 5.2893,3.3988 12.23364,2.6549 16.67666,-1.79154 l 53.55502,-53.555 c 4.44299,-4.44302 5.19032,-11.38736 1.79152,-16.67666 L 392.1488,309.85892 c 4.37136,-8.59938 8.07386,-17.52636 11.06316,-26.67855 l 34.37704,-7.47329 c 6.14241,-1.33767 10.52401,-6.7737 10.52401,-13.05943 v -75.73597 c 0,-6.28573 -4.3816,-11.72176 -10.52401,-13.05944 z m -16.20572,78.02228 -31.52082,6.85222 c -4.84227,1.05444 -8.70516,4.69895 -10.03602,9.46955 -3.46364,12.42472 -8.44582,24.43997 -14.80664,35.7113 -2.43648,4.31676 -2.28633,9.62653 0.39585,13.79654 l 17.4547,27.14947 -38.31843,38.32184 -27.15288,-17.4547 c -4.17001,-2.68218 -9.47978,-2.83233 -13.79312,-0.39585 -11.27474,6.36082 -23.29,11.343 -35.71472,14.80664 -4.7706,1.33086 -8.41511,5.19375 -9.46955,10.03602 l -6.85222,31.52082 H 197.3797 l -6.8522,-31.52082 c -1.05444,-4.84227 -4.69895,-8.70516 -9.46955,-10.03602 -12.42473,-3.46364 -24.43997,-8.44582 -35.71131,-14.80664 -4.31675,-2.43648 -9.62652,-2.28292 -13.79653,0.39585 l -27.14947,17.4547 -38.318422,-38.32184 17.451274,-27.14947 c 2.68219,-4.17001 2.83575,-9.47978 0.39925,-13.79654 -6.360796,-11.27133 -11.342987,-23.28658 -14.810034,-35.7113 -1.330864,-4.7706 -5.19034,-8.41511 -10.032597,-9.46955 l -31.524244,-6.85222 v -54.18973 l 31.520821,-6.8522 c 4.842269,-1.05444 8.705156,-4.69895 10.03602,-9.46955 3.463638,-12.42474 8.445815,-24.43997 14.806624,-35.71132 2.436485,-4.31674 2.28635,-9.62651 -0.39584,-13.79652 L 66.078808,104.70572 104.39722,66.383889 131.55011,83.838587 c 4.17001,2.682185 9.47978,2.832331 13.79312,0.39584 11.27475,-6.36081 23.28999,-11.342987 35.71472,-14.806625 4.7706,-1.330862 8.41511,-5.193763 9.46955,-10.03602 l 6.8522,-31.520821 h 54.18973 l 6.85222,31.520821 c 1.05444,4.842257 4.69895,8.705158 9.46955,10.03602 12.42472,3.463638 24.43998,8.445815 35.7113,14.806625 4.31676,2.436491 9.62653,2.282943 13.79654,-0.39584 l 27.14948,-17.454698 38.31841,38.321831 -17.45128,27.14948 c -2.68218,4.17001 -2.83574,9.47978 -0.39924,13.79652 6.36421,11.27135 11.34299,23.28658 14.81003,35.71132 1.33086,4.7706 5.19034,8.41511 10.03261,9.46955 l 31.52423,6.8522 z m 0,0"
   id="path4" /></svg>