<?xml version="1.0" encoding="UTF-8" standalone="no"?>
<svg
   xmlns:dc="http://purl.org/dc/elements/1.1/"
   xmlns:cc="http://creativecommons.org/ns#"
   xmlns:rdf="http://www.w3.org/1999/02/22-rdf-syntax-ns#"
   xmlns:svg="http://www.w3.org/2000/svg"
   xmlns="http://www.w3.org/2000/svg"
   xmlns:sodipodi="http://sodipodi.sourceforge.net/DTD/sodipodi-0.dtd"
   xmlns:inkscape="http://www.inkscape.org/namespaces/inkscape"
   version="1.1"
   id="Capa_1"
   x="0px"
   y="0px"
   viewBox="0 0 512 512"
   style="enable-background:new 0 0 512 512;"
   xml:space="preserve"
   sodipodi:docname="eyeClosed (copy).svg"
   inkscape:version="0.92.5 (2060ec1f9f, 2020-04-08)"><metadata
   id="metadata55"><rdf:RDF><cc:Work
       rdf:about=""><dc:format>image/svg+xml</dc:format><dc:type
         rdf:resource="http://purl.org/dc/dcmitype/StillImage" /><dc:title /></cc:Work></rdf:RDF></metadata><defs
   id="defs53" /><sodipodi:namedview
   pagecolor="#ffffff"
   bordercolor="#666666"
   borderopacity="1"
   objecttolerance="10"
   gridtolerance="10"
   guidetolerance="10"
   inkscape:pageopacity="0"
   inkscape:pageshadow="2"
   inkscape:window-width="1052"
   inkscape:window-height="1020"
   id="namedview51"
   showgrid="false"
   inkscape:zoom="1.3964844"
   inkscape:cx="256"
   inkscape:cy="256"
   inkscape:window-x="1106"
   inkscape:window-y="259"
   inkscape:window-maximized="0"
   inkscape:current-layer="Capa_1" />



<g
   id="g20">
</g>
<g
   id="g22">
</g>
<g
   id="g24">
</g>
<g
   id="g26">
</g>
<g
   id="g28">
</g>
<g
   id="g30">
</g>
<g
   id="g32">
</g>
<g
   id="g34">
</g>
<g
   id="g36">
</g>
<g
   id="g38">
</g>
<g
   id="g40">
</g>
<g
   id="g42">
</g>
<g
   id="g44">
</g>
<g
   id="g46">
</g>
<g
   id="g48">
</g>
<g
   id="g8"
   transform="translate(13.806291,10.225876)"><g
     id="g6"><path
       inkscape:connector-curvature="0"
       d="m 0,437.8 c 0,28.5 23.2,51.6 51.6,51.6 h 386.2 c 28.5,0 51.6,-23.2 51.6,-51.6 V 51.6 C 489.4,23.1 466.2,0 437.8,0 H 51.6 C 23.1,0 0,23.2 0,51.6 c 0,0 0,386.2 0,386.2 z m 437.8,27.1 H 51.6 c -14.9,0 -27.1,-12.2 -27.1,-27.1 v -64.5 l 92.8,-92.8 79.3,79.3 c 4.8,4.8 12.5,4.8 17.3,0 L 357.1,216.6 464.9,324.4 v 113.4 c 0,14.9 -12.2,27.1 -27.1,27.1 z M 51.6,24.5 h 386.2 c 14.9,0 27.1,12.2 27.1,27.1 v 238.1 l -99.2,-99.1 c -4.8,-4.8 -12.5,-4.8 -17.3,0 L 205.2,333.8 125.9,254.5 c -4.8,-4.8 -12.5,-4.8 -17.3,0 l -84.1,84.1 v -287 c 0,-14.9 12.2,-27.1 27.1,-27.1 z"
       id="path2-3" /><path
       inkscape:connector-curvature="0"
       d="m 151.7,196.1 c 34.4,0 62.3,-28 62.3,-62.3 0,-34.3 -28,-62.3 -62.3,-62.3 -34.3,0 -62.3,28 -62.3,62.3 0,34.3 27.9,62.3 62.3,62.3 z m 0,-100.1 c 20.9,0 37.8,17 37.8,37.8 0,20.8 -17,37.8 -37.8,37.8 -20.8,0 -37.8,-17 -37.8,-37.8 0,-20.8 16.9,-37.8 37.8,-37.8 z"
       id="path4" /></g></g></svg>