<?xml version="1.0" encoding="UTF-8" standalone="no"?>
<!-- Generator: Adobe Illustrator 19.0.0, SVG Export Plug-In . SVG Version: 6.00 Build 0)  -->

<svg
   xmlns:dc="http://purl.org/dc/elements/1.1/"
   xmlns:cc="http://creativecommons.org/ns#"
   xmlns:rdf="http://www.w3.org/1999/02/22-rdf-syntax-ns#"
   xmlns:svg="http://www.w3.org/2000/svg"
   xmlns="http://www.w3.org/2000/svg"
   xmlns:sodipodi="http://sodipodi.sourceforge.net/DTD/sodipodi-0.dtd"
   xmlns:inkscape="http://www.inkscape.org/namespaces/inkscape"
   version="1.1"
   id="Capa_1"
   x="0px"
   y="0px"
   viewBox="0 0 512 512"
   style="enable-background:new 0 0 512 512;"
   xml:space="preserve"
   sodipodi:docname="user.svg"
   inkscape:version="0.92.5 (2060ec1f9f, 2020-04-08)"><metadata
   id="metadata55"><rdf:RDF><cc:Work
       rdf:about=""><dc:format>image/svg+xml</dc:format><dc:type
         rdf:resource="http://purl.org/dc/dcmitype/StillImage" /></cc:Work></rdf:RDF></metadata><defs
   id="defs53" /><sodipodi:namedview
   pagecolor="#ffffff"
   bordercolor="#666666"
   borderopacity="1"
   objecttolerance="10"
   gridtolerance="10"
   guidetolerance="10"
   inkscape:pageopacity="0"
   inkscape:pageshadow="2"
   inkscape:window-width="640"
   inkscape:window-height="480"
   id="namedview51"
   showgrid="false"
   inkscape:zoom="0.4609375"
   inkscape:cx="256"
   inkscape:cy="256"
   inkscape:window-x="544"
   inkscape:window-y="442"
   inkscape:window-maximized="0"
   inkscape:current-layer="Capa_1" />



<g
   id="g20">
</g>
<g
   id="g22">
</g>
<g
   id="g24">
</g>
<g
   id="g26">
</g>
<g
   id="g28">
</g>
<g
   id="g30">
</g>
<g
   id="g32">
</g>
<g
   id="g34">
</g>
<g
   id="g36">
</g>
<g
   id="g38">
</g>
<g
   id="g40">
</g>
<g
   id="g42">
</g>
<g
   id="g44">
</g>
<g
   id="g46">
</g>
<g
   id="g48">
</g>
<g
   transform="translate(4.3389856,4.3389814)"
   id="g6"><g
     id="g4"><path
       inkscape:connector-curvature="0"
       d="m 256,0 c -74.439,0 -135,60.561 -135,135 0,74.439 60.561,135 135,135 74.439,0 135,-60.561 135,-135 C 391,60.561 330.439,0 256,0 Z"
       id="path2" /></g></g><g
   transform="translate(4.3389856,4.3389814)"
   id="g12"><g
     id="g10"><path
       inkscape:connector-curvature="0"
       d="M 423.966,358.195 C 387.006,320.667 338.009,300 286,300 H 226 C 173.992,300 124.994,320.667 88.034,358.195 51.255,395.539 31,444.833 31,497 c 0,8.284 6.716,15 15,15 h 420 c 8.284,0 15,-6.716 15,-15 0,-52.167 -20.255,-101.461 -57.034,-138.805 z"
       id="path8" /></g></g></svg>